<?xml version="1.0" encoding="UTF-8"?>
<svg id="_레이어_1" xmlns="http://www.w3.org/2000/svg" version="1.1" xmlns:ns0="http://www.w3.org/2000/svg" viewBox="0 0 4478.74 5669.29">
  <!-- Generator: Adobe Illustrator 30.3.0, SVG Export Plug-In . SVG Version: 2.1.3 Build 182)  -->
  <defs>
    <style>
      .st0 {
        fill: none;
        stroke: #221714;
        stroke-miterlimit: 10;
        stroke-width: .2px;
      }
    </style>
  </defs>
  <polyline class="st0" points="3451.81 2013.93 3718.22 2107.22 3680.25 2183.2 3667.25 2272.35 3665.87 2284.55 3661.55 2339.57 3660.54 2379.55 3662.1 2428.48 3666.55 2471.5 3666.82 2473.37 3652.8 2475.43 3666.82 2473.37 3666.92 2474.09 3673.07 2508.87 3682.07 2546.64 3684.89 2555.92 3671.37 2560.18 3684.89 2555.92 3696.08 2585.46 3699.32 2592.67 3714.18 2621.15 3721.44 2632.84 3738.13 2655.59 3749.59 2668.55 3770.03 2687.55 3771.91 2689.08 3793.3 2704.33 3796.95 2706.58 3819.73 2718.53 3823.57 2720.2 3846.96 2728.31 3855.37 2730.49 3885.52 2735.76 3927.83 2739.43 3927.83 4206.62 3156.88 4206.62 2385.93 4206.62 2385.93 2739.43 2432.57 2735.2 2458.38 2730.49 2482.09 2723.38 2490.19 2720.2 2511.65 2709.6 2516.82 2706.58 2538.49 2691.73 2541.85 2689.08 2562.48 2670.3 2564.16 2668.55 2582.37 2647 2592.31 2632.84 2606.71 2608.31 2614.43 2592.67 2626.35 2563.4 2628.86 2555.92 2642.39 2560.18 2628.86 2555.92 2637.45 2524.06 2640.69 2508.87 2646.84 2474.09 2646.94 2473.37 2660.96 2475.43 2646.94 2473.37 2651.53 2430.36 2653.22 2381.43 2653.22 2379.55 2651.7 2330.07 2647.89 2284.55 2638.3 2213.55 2633.51 2183.2 2595.53 2107.22 2861.95 2013.93 2892.87 2090.78 2903.5 2110.69 2914.56 2125.11 2922.32 2133.17 2939.98 2148.23 2944.7 2151.61 2964.26 2163.07 2969.39 2165.46 2989.67 2172.82 3014.37 2178.77 3046.87 2183.91 3092.91 2187.72 3156.88 2189.34 3156.88 2203.52 3156.88 2189.34 3227.44 2187.36 3266.88 2183.91 3299.39 2178.77 3327.68 2171.72 3344.37 2165.46 3362.88 2155.64 3369.05 2151.61 3387.19 2137.16 3391.43 2133.17 3405.91 2116.94 3410.26 2110.69 3420.88 2090.78 3451.81 2013.93"/>
  <polyline class="st0" points="1174.28 2121.7 1182.18 2153.1 1196.15 2198.95 1200.09 2210.29 1217.14 2254.07 1235.61 2293.29 1253.9 2325.57 1256.09 2329.06 1257.75 2331.66 1245.82 2339.31 1257.75 2331.66 1277.3 2359.43 1298.57 2384.49 1312.72 2398.85 1337.32 2420.37 1353.33 2432.4 1381.81 2450.61 1400.04 2460.46 1431.41 2475.17 1431.41 2489.34 1431.41 2475.17 1462.77 2460.46 1492.22 2443.88 1509.47 2432.4 1535.25 2412.3 1550.09 2398.85 1572.75 2375.02 1585.51 2359.43 1605.06 2331.66 1616.99 2339.31 1605.06 2331.66 1606.72 2329.06 1625.68 2296.21 1627.2 2293.29 1644.24 2257.39 1662.11 2211.99 1662.72 2210.29 1677.41 2164.64 1680.63 2153.1 1688.53 2121.7 1949.98 2212.46 1940.1 2288.66 1935.93 2341.57 1935.56 2350.21 1935.25 2399.24 1935.67 2411.49 1939.26 2457.61 1941.36 2473.73 1927.33 2475.74 1941.36 2473.73 1948.94 2514.31 1952.42 2528.4 1962.52 2561.27 1970.13 2580.93 1984.07 2610.02 1986.62 2614.62 2002.66 2639.69 2007.1 2645.66 2024.39 2665.9 2035.04 2676.43 2055.49 2693.46 2067.78 2701.99 2090.72 2714.98 2096.7 2717.78 2119.55 2726.41 2127.8 2728.73 2153.19 2733.64 2202.36 2739.49 2202.36 4206.62 1431.41 4206.62 660.45 4206.62 660.45 2739.49 709.61 2733.64 735.01 2728.73 758.21 2721.14 766.12 2717.78 789.44 2705.49 795.03 2701.99 815.86 2686.82 827.77 2676.43 846.26 2657.27 855.72 2645.66 872.43 2621.04 876.18 2614.61 889.7 2587.82 892.68 2580.93 904.52 2548.65 910.39 2528.4 918.97 2489.16 921.45 2473.73 935.48 2475.74 921.45 2473.73 926.17 2428.98 927.14 2411.49 927.63 2362.46 927.25 2350.21 923.58 2297.25 922.71 2288.66 912.83 2212.46 1174.28 2121.7"/>
  <polyline class="st0" points="2193.55 1857.86 2129.84 1945.75 2193.55 2033.62 1668.53 2033.62 1668.53 2019.45 1668.53 2033.62 1401.5 2033.62 1401.5 2019.45 1401.5 2033.62 1134.46 2033.62 1134.46 2019.45 1134.46 2033.62 609.45 2033.62 673.15 1945.75 609.45 1857.86 1134.46 1857.86 1134.46 1872.03 1134.46 1857.86 1401.5 1857.86 1401.5 1872.03 1401.5 1857.86 1668.53 1857.86 1668.53 1872.03 1668.53 1857.86 2193.55 1857.86"/>
</svg>