<?xml version="1.0" encoding="UTF-8"?>
<svg id="_레이어_1" data-name="레이어_1" xmlns="http://www.w3.org/2000/svg" version="1.1" viewBox="0 0 4337.01 3401.57">
  <!-- Generator: Adobe Illustrator 29.8.6, SVG Export Plug-In . SVG Version: 2.1.1 Build 1)  -->
  <defs>
    <style>
      .st0 {
        fill: #fff;
        stroke: #221e1f;
        stroke-miterlimit: 10;
      }
    </style>
  </defs>
  <polyline class="st0" points="844.16 877.2 853.19 915.73 868.01 967.86 873.93 985.97 891.4 1033.67 910.83 1078.18 915.66 1088.1 937.12 1127.48 939.13 1130.83 927.01 1138.17 939.13 1130.83 939.98 1132.22 961.53 1164.66 965.29 1169.76 989.06 1198.88 1007.78 1218.64 1035.43 1243.77 1056.74 1260.44 1088.89 1281.89 1113.24 1295.67 1151.28 1314.26 1151.28 1328.43 1151.28 1314.26 1189.32 1295.67 1222.73 1276.25 1245.82 1260.44 1274.98 1237.07 1294.78 1218.64 1320.31 1191.05 1337.27 1169.76 1359.25 1137.61 1362.58 1132.22 1363.43 1130.83 1375.55 1138.17 1363.43 1130.83 1383.82 1094.19 1386.9 1088.1 1406.99 1043.9 1425.78 994.33 1428.63 985.97 1444.52 934.14 1449.37 915.73 1458.4 877.2 1754.86 965.81 1743.37 1059 1742.56 1067.12 1738.03 1127.63 1737.18 1148.93 1737.08 1207.56 1737.99 1230.34 1742.14 1281.65 1746.22 1312.94 1732.2 1315.07 1746.22 1312.94 1754.44 1357.96 1761.01 1385.23 1773.49 1425.91 1784.59 1454.65 1800.31 1487.85 1806.51 1499.16 1825.51 1529.07 1833.68 1540.17 1854.35 1564.49 1870.75 1580.79 1895.2 1601.27 1914.14 1614.5 1940.62 1629.67 1952.43 1635.3 1977.69 1645.07 1993.62 1649.68 2027.22 1656.11 2092.26 1663.67 2092.26 3301.08 1151.28 3301.08 210.3 3301.08 210.3 1663.67 275.34 1656.11 308.94 1649.68 334.77 1641.6 350.13 1635.3 378.02 1620.9 388.43 1614.5 414.31 1595.87 431.82 1580.79 454.15 1557.98 468.88 1540.17 486.92 1514.35 496.05 1499.16 512.77 1466.47 517.97 1454.65 531.45 1418.97 541.55 1385.23 551.65 1340.6 556.35 1312.94 570.36 1315.07 556.35 1312.94 562.39 1261.82 564.57 1230.34 565.86 1178.24 565.39 1148.93 561.92 1088.36 560.01 1067.12 548.78 973.91 547.7 965.81 844.16 877.2"/>
  <polyline class="st0" points="3589.68 769.45 3891.18 860.35 3852.61 937.5 3839.12 1034.42 3835.37 1068.59 3830.77 1132.36 3829.73 1191.38 3831.98 1247.42 3837.41 1300.77 3839.12 1312.84 3825.19 1315.51 3839.2 1313.4 3845.39 1348.39 3856.19 1391.98 3857.28 1395.73 3843.69 1399.76 3857.28 1395.73 3870.11 1434.35 3875.33 1447.66 3890.83 1481.33 3903.89 1504.8 3922.08 1532.28 3941.07 1556.04 3962.83 1578.48 3970.99 1585.85 3995.72 1605.33 4004.85 1611.58 4031.43 1627.23 4041.15 1632.02 4067.94 1642.83 4084.83 1648.1 4116.48 1655.36 4162.82 1662.08 4185.15 1664.56 4185.15 3301.08 3244.17 3301.08 2303.2 3301.08 2303.2 1664.56 2361.85 1657.11 2397.63 1649.68 2403.52 1648.1 2430.91 1638.98 2447.2 1632.02 2472.92 1618.26 2483.5 1611.58 2508.89 1592.97 2517.36 1585.85 2539.88 1564.17 2547.28 1556.04 2567.75 1530.23 2584.46 1504.8 2602.08 1472.17 2613.02 1447.66 2627.21 1408.36 2631.07 1395.73 2644.66 1399.76 2631.07 1395.73 2642.16 1352.21 2642.96 1348.39 2649.14 1313.4 2649.24 1312.78 2663.26 1314.87 2649.24 1312.78 2655.22 1261.97 2658.29 1208.44 2658.62 1191.38 2657.79 1137.27 2653.45 1073.49 2652.98 1068.59 2643.73 992.47 2635.73 937.5 2597.17 860.35 2898.67 769.45 2928.88 844.54 2942.03 866.28 2955.34 881.82 2964.55 890.41 2983.68 905.2 2990.82 909.8 3011.73 920.75 3019.4 923.89 3041.62 930.72 3070.78 936.15 3107.62 939.98 3167.62 942.92 3244.17 943.82 3244.17 957.99 3244.17 943.82 3334.38 942.5 3380.72 939.98 3417.57 936.15 3447.76 930.46 3468.95 923.89 3490.35 913.97 3497.53 909.8 3517.27 895.88 3523.8 890.41 3538.9 875.55 3546.32 866.28 3559.46 844.54 3589.68 769.45"/>
  <polyline class="st0" points="2096.35 495.65 2032.65 583.52 2096.35 671.4 1467.63 671.4 1467.63 657.23 1467.63 671.4 1151.28 671.4 1151.28 657.23 1151.28 671.4 834.93 671.4 834.93 657.23 834.93 671.4 206.21 671.4 269.91 583.52 206.21 495.65 834.93 495.65 834.93 509.82 834.93 495.65 1151.28 495.65 1151.28 509.82 1151.28 495.65 1467.63 495.65 1467.63 509.82 1467.63 495.65 2096.35 495.65"/>
</svg>