<?xml version="1.0" encoding="UTF-8"?>
<svg id="_레이어_1" data-name="레이어_1" xmlns="http://www.w3.org/2000/svg" version="1.1" viewBox="0 0 4337.01 3401.57">
  <!-- Generator: Adobe Illustrator 29.8.6, SVG Export Plug-In . SVG Version: 2.1.1 Build 1)  -->
  <defs>
    <style>
      .st0 {
        fill: #fff;
        stroke: #221e1f;
        stroke-miterlimit: 10;
      }
    </style>
  </defs>
  <polyline class="st0" points="3595.36 712.44 3902.7 802.99 3864.04 880.32 3850.17 980.91 3846.32 1016.36 3841.99 1074.89 3840.56 1136.12 3840.63 1143.78 3842.87 1199.4 3848.09 1252.27 3850.53 1269.8 3836.51 1271.91 3850.53 1269.8 3850.62 1270.39 3856.81 1305.4 3867.63 1349.02 3868.71 1352.78 3855.11 1356.77 3868.71 1352.78 3881.97 1393.27 3887.36 1407.24 3903.43 1442.56 3916.99 1467.2 3935.92 1496.06 3955.69 1521.02 3978.37 1544.63 3986.87 1552.38 4012.67 1572.9 4022.21 1579.49 4049.96 1595.99 4060.12 1601.06 4088.11 1612.51 4105.78 1618.1 4138.89 1625.85 4187.38 1633.11 4210.75 1635.82 4210.75 3300.6 3241.42 3300.6 2272.09 3300.6 2272.09 1635.82 2333.48 1627.74 2368.85 1620.32 2377.06 1618.1 2405.71 1608.42 2422.72 1601.06 2450.34 1586.07 2460.63 1579.49 2487.14 1559.88 2495.97 1552.38 2519.45 1529.57 2527.15 1521.02 2548.47 1493.91 2565.85 1467.2 2582.4 1436.57 2595.48 1407.24 2609.09 1369.31 2614.13 1352.78 2627.73 1356.77 2614.13 1352.78 2625.23 1309.23 2626.03 1305.4 2632.22 1270.39 2632.31 1269.8 2646.33 1271.91 2632.31 1269.8 2638.57 1217.06 2641.84 1161.49 2642.21 1143.78 2641.43 1087.64 2637.24 1023.99 2636.52 1016.36 2627.03 937.37 2618.8 880.32 2580.14 802.99 2887.48 712.44 2917.58 787.27 2931.15 809.31 2944.84 825.04 2954.29 833.73 2973.91 848.64 2981.22 853.27 3002.6 864.26 3010.45 867.4 3033.14 874.18 3062.9 879.48 3100.47 883.09 3162.41 885.84 3241.42 886.65 3241.42 900.82 3241.42 886.65 3334.52 885.45 3382.37 883.09 3419.95 879.48 3450.75 873.93 3472.39 867.4 3493.14 858.07 3501.62 853.27 3521.86 839.24 3528.55 833.73 3544.06 818.7 3551.69 809.31 3565.26 787.27 3595.36 712.44"/>
  <polyline class="st0" points="840.29 820.19 849.5 859.91 863.76 910.77 870.72 932.33 888.62 981.52 908.53 1027.43 913.49 1037.66 935.18 1077.72 937.21 1081.12 925.08 1088.44 937.21 1081.12 938.45 1083.17 960.59 1116.64 964.45 1121.91 988.87 1151.97 1008.13 1172.37 1036.55 1198.32 1058.48 1215.55 1088.05 1235.56 1116.62 1251.97 1155.77 1271.21 1155.77 1285.39 1155.77 1271.21 1194.93 1251.97 1229.31 1231.89 1253.07 1215.55 1283.06 1191.41 1303.42 1172.37 1329.67 1143.89 1347.1 1121.91 1368.18 1091.11 1373.1 1083.17 1374.34 1081.12 1386.47 1088.44 1374.34 1081.12 1394.94 1043.85 1398.05 1037.66 1417.79 994.17 1437.16 943.11 1440.83 932.33 1457.09 878.89 1462.04 859.91 1471.26 820.19 1773.53 908.49 1761.66 1005.52 1760.82 1013.98 1756.17 1076.99 1755.3 1099.17 1755.09 1153.42 1756.23 1183.93 1760.6 1237.34 1764.88 1269.92 1750.87 1272.06 1764.88 1269.92 1773.45 1316.76 1780.29 1345.14 1791.79 1383.15 1804.86 1417.38 1821.22 1451.92 1827.68 1463.69 1845.11 1491.46 1855.97 1506.36 1877.48 1531.66 1894.55 1548.63 1920.01 1569.93 1939.72 1583.69 1964.85 1598.24 1979.58 1605.33 2005.86 1615.49 2022.44 1620.29 2054.59 1626.54 2057.41 1626.96 2125.1 1634.82 2125.1 3300.6 1155.77 3300.6 186.45 3300.6 186.45 1634.82 254.14 1626.96 285.65 1621.13 289.1 1620.29 315.99 1611.88 331.97 1605.33 357.86 1592.17 371.83 1583.69 398.77 1564.31 417 1548.63 440.24 1524.89 455.58 1506.36 473.81 1480.36 483.87 1463.69 500.41 1431.55 506.69 1417.38 520.73 1380.25 531.26 1345.14 541.19 1301.71 546.67 1269.92 560.68 1272.06 546.67 1269.92 553.01 1216.7 555.32 1183.93 556.71 1131.38 556.25 1099.17 552.7 1036.09 550.73 1013.98 539.41 919.03 538.02 908.49 840.29 820.19"/>
  <polyline class="st0" points="2126.36 496.13 2062.66 584 2126.36 671.88 1480.34 671.88 1480.34 657.7 1480.34 671.88 1155.77 671.88 1155.77 657.7 1155.77 671.88 831.21 671.88 831.21 657.7 831.21 671.88 185.19 671.88 248.89 584 185.19 496.13 831.21 496.13 831.21 510.3 831.21 496.13 1155.77 496.13 1155.77 510.3 1155.77 496.13 1480.34 496.13 1480.34 510.3 1480.34 496.13 2126.36 496.13"/>
</svg>